# xmcd CD database file
#
# Track frame offsets:
#	183
#	2853
#	25995
#	64510
#	87560
#	124910
#	174543
#	205383
#	240678
#	253423
#
# Disc length: 3428 seconds
#
# Revision: 0
# Processed by: cddbd v1.5.2PL0 Copyright (c) Steve Scherf et al.
# Submitted via: CDex 1.51
#
DISCID=8e0d620a
DTITLE=Kontraband - Live At Viersen
DYEAR=1991
DGENRE=Jazz
TTITLE0=Arrival - Prichod
TTITLE1=Pedestrian Zone - Pesi Zona
TTITLE2=Vlada Came Yesterday - Vcera Prisel Vlada
TTITLE3=Eyebrows in Motion - Brvy V Pohybu
TTITLE4=Tribute To Jaco Pastorius - Pocta Jaco Pastoriovi
TTITLE5=With Joy Unbounded, Con Funebrio - Vesele Jen Vesele, Con Funebrio
TTITLE6=The Dune - Duna
TTITLE7=Flying Carpet - Letajici Koberec
TTITLE8=Afternoon Coffee - Odpoledni Kava
TTITLE9=Departure - Odchod
EXTD=YEAR: 1991
EXTT0=
EXTT1=
EXTT2=
EXTT3=
EXTT4=
EXTT5=
EXTT6=
EXTT7=
EXTT8=
EXTT9=
PLAYORDER=
